<?xml version="1.0" encoding="utf-8"?>
<!-- Generator: Adobe Illustrator 25.0.1, SVG Export Plug-In . SVG Version: 6.00 Build 0)  -->
<svg version="1.1" id="Layer_1" xmlns="http://www.w3.org/2000/svg" xmlns:xlink="http://www.w3.org/1999/xlink" x="0px" y="0px"
	 viewBox="0 0 2560 5760" style="enable-background:new 0 0 2560 5760;" xml:space="preserve">
<style type="text/css">
	.st0{fill:#F7D6E3;}
	.st1{fill:#FDF7FA;}
	.st2{fill:#FFFBEA;}
	.st3{fill:#DAEFEC;}
</style>
<polygon class="st0" points="1280,0 1280,91.3 1280,154.3 1284,245 1291,314 1314,451 1344,566 1365,624 1427,749 1538,897 
	1710,1090 1794,1183 1835,1221 1922,1365 1978,1444 2017,1490 2060,1528 2092,1553 2127,1575 2157,1586 2239,1604 2317,1608 
	2457,1611 2560,1606.7 2560,0 "/>
<path class="st1" d="M0,1594.8l57,29.2l60,37l91,59l98,68c0,0,65,48,65,48c25.3,22.9,51.8,44.9,72.6,72.2
	c24.9,32.7,43.2,69.9,61.2,106.7c11,22.4,22,44.9,31.4,68c9.6,23.5,11.8,48,19.1,72.2c12,39.9,14.7,81.4,11.1,122.9
	c-4,46.1-15,91.2-26,136.1c-3.6,14.6-7.1,29.2-13.1,43c-5.3,12.3-12.4,23.7-19.4,35c-13.7,22-27.3,44-41,66
	c-19.8,31.9-47,59.9-75,83c-34.7,28.7-76.7,47.7-117.6,67.6C151.3,2768.4,81.1,2877.5,0,2982.2V1594.8z"/>
<path class="st2" d="M2560,2921.8c-33.1,38.4-65.1,78.2-100.8,114.3c-26.1,26.4-54.7,50.7-86.9,69.6c-22.8,13.4-47.1,23.9-70.2,36.7
	c-33.7,18.7-55.1,34.6-85.1,58.6c-9.1,7.3-18.2,14.8-26.2,23.3c-8.8,9.4-15.3,21-22,32c-8,13-15.6,26.2-22.8,39.6
	s-14.2,27-20.7,40.7c-6.8,14.3-13.7,28.9-18.4,44.1c-4,12.8-6.5,26-8.4,39.2c-4.6,31.3-5.2,62.5-4.3,94.1
	c0.9,28.8,2.5,56.9,8.4,85.2c8.7,42.4,23.9,83.3,44.2,121.5c16.8,31.6,37.2,61.6,61.3,88.2c50.8,56,115.4,96.6,178.1,137.9
	c5.1,3.3,10,6.8,15,10.3c0,0,159,94.3,159,94.3S2560,2921.8,2560,2921.8z"/>
<polygon class="st3" points="1280,5760 1280,5668.7 1280,5605.7 1276,5515 1269,5446 1246,5309 1216,5194 1195,5136 1133,5011 
	1022,4863 850,4670 766,4577 725,4539 638,4395 582,4316 543,4270 500,4232 468,4207 433,4185 403,4174 321,4156 243,4152 103,4149 
	0,4153.3 0,5760 "/>
</svg>
